<?xml version="1.0" standalone="no"?>
<!DOCTYPE svg PUBLIC "-//W3C//DTD SVG 20010904//EN"
 "http://www.w3.org/TR/2001/REC-SVG-20010904/DTD/svg10.dtd">
<svg version="1.0" xmlns="http://www.w3.org/2000/svg"
 width="732.000000pt" height="732.000000pt" viewBox="0 0 732.000000 732.000000"
 preserveAspectRatio="xMidYMid meet">
<metadata>
Created by potrace 1.14, written by Peter Selinger 2001-2017
</metadata>
<g transform="translate(0.000000,732.000000) scale(0.100000,-0.100000)"
fill="#000000" stroke="none">
<path d="M1627 7304 c-1 -1 -31 -5 -67 -8 -189 -17 -363 -75 -475 -159 -64
-48 -155 -149 -194 -214 -43 -72 -95 -203 -105 -263 -24 -141 -28 -190 -29
-310 -1 -207 12 -353 49 -525 8 -38 17 -81 20 -95 12 -59 69 -231 112 -335 63
-156 217 -434 274 -495 10 -11 18 -22 18 -25 0 -3 4 -11 10 -18 5 -7 35 -43
66 -82 155 -194 317 -359 507 -517 28 -24 67 -58 86 -75 19 -18 37 -33 41 -33
3 0 15 -8 26 -17 10 -10 37 -31 59 -48 22 -16 46 -35 53 -42 7 -7 17 -13 21
-13 4 0 17 -9 30 -21 12 -11 52 -34 89 -51 159 -73 373 -27 488 104 40 45 91
150 99 203 7 39 7 125 1 155 -17 88 -65 178 -123 231 -15 14 -75 61 -133 104
-58 43 -112 86 -120 94 -8 9 -25 24 -38 32 -84 59 -307 279 -397 394 -22 28
-43 52 -46 55 -7 7 -110 159 -128 191 -33 56 -100 196 -106 222 -4 15 -11 30
-16 33 -5 3 -9 15 -9 28 0 12 -4 26 -9 31 -7 8 -39 133 -56 225 -17 91 -25
373 -11 387 9 10 4092 10 4101 1 9 -9 10 -224 1 -303 -7 -58 -9 -72 -20 -125
-3 -14 -11 -50 -17 -80 -15 -72 -70 -223 -110 -302 -17 -35 -40 -81 -51 -103
-12 -22 -24 -42 -27 -45 -4 -3 -22 -29 -39 -58 -33 -55 -44 -69 -73 -100 -9
-9 -20 -24 -25 -34 -32 -59 -341 -368 -427 -426 -12 -9 -24 -18 -27 -22 -14
-17 -191 -150 -199 -150 -5 0 -11 -4 -13 -8 -1 -4 -32 -28 -68 -52 -36 -25
-67 -47 -70 -51 -13 -15 -377 -241 -513 -318 -23 -13 -55 -32 -72 -42 -16 -10
-52 -30 -80 -44 -27 -15 -56 -32 -63 -38 -7 -5 -37 -22 -67 -37 -30 -15 -60
-32 -67 -37 -7 -6 -42 -25 -78 -44 -36 -18 -67 -36 -70 -39 -3 -3 -34 -21 -70
-39 -36 -19 -81 -43 -100 -54 -111 -62 -214 -117 -222 -117 -4 0 -8 -3 -8 -8
0 -4 -24 -18 -52 -32 -29 -13 -55 -27 -58 -30 -3 -4 -39 -25 -80 -47 -71 -38
-168 -93 -200 -113 -8 -5 -53 -31 -100 -59 -115 -67 -292 -177 -307 -190 -7
-6 -15 -11 -18 -11 -3 0 -59 -37 -126 -82 -66 -46 -128 -87 -137 -93 -16 -10
-28 -19 -56 -42 -8 -7 -19 -13 -25 -13 -5 0 -11 -3 -13 -7 -1 -5 -55 -48 -118
-98 -63 -49 -128 -101 -144 -115 -207 -178 -365 -346 -506 -535 -33 -44 -64
-85 -68 -90 -5 -6 -28 -44 -52 -85 -24 -41 -50 -83 -58 -92 -8 -10 -12 -18 -8
-18 3 0 -4 -17 -17 -37 -32 -52 -136 -300 -139 -330 0 -5 -9 -32 -19 -60 -10
-29 -16 -53 -13 -53 3 0 0 -8 -5 -18 -5 -9 -12 -35 -15 -57 -4 -22 -8 -47 -11
-55 -2 -8 -6 -33 -10 -55 -3 -22 -7 -47 -10 -55 -16 -61 -24 -342 -12 -470 11
-117 15 -141 42 -234 30 -102 61 -168 121 -252 45 -64 160 -174 181 -174 7 0
13 -4 13 -10 0 -5 5 -10 10 -10 6 0 27 -11 48 -24 20 -12 39 -23 42 -23 3 -1
21 -7 41 -16 59 -24 208 -58 289 -65 104 -9 4139 -8 4225 1 117 12 137 16 221
41 225 67 389 205 483 407 16 35 35 84 42 109 7 25 14 50 15 55 3 11 11 47 19
85 10 52 18 169 18 270 0 221 -27 414 -88 620 -9 30 -17 60 -19 65 -1 6 -10
27 -19 49 -9 21 -17 42 -17 46 0 24 -120 267 -170 345 -11 17 -23 37 -27 45
-3 8 -9 17 -13 20 -3 3 -25 34 -49 70 -24 36 -47 67 -50 70 -3 3 -19 23 -35
45 -16 22 -37 49 -47 60 -11 11 -40 45 -66 74 -49 56 -236 242 -295 295 -161
142 -508 398 -603 446 -74 37 -91 41 -185 44 -128 4 -216 -33 -316 -134 -39
-39 -85 -113 -86 -137 0 -4 -4 -15 -9 -24 -19 -37 -26 -129 -14 -199 16 -99
97 -223 185 -282 94 -63 216 -152 218 -159 2 -5 8 -9 13 -9 11 0 212 -161 252
-202 15 -15 27 -26 27 -24 0 2 29 -25 65 -61 295 -292 452 -583 492 -908 8
-70 7 -264 -1 -273 -10 -9 -4092 -9 -4101 0 -15 14 -6 333 10 358 3 4 7 25 10
46 3 22 9 46 12 54 3 8 8 23 9 32 6 26 62 164 90 221 28 55 118 198 150 237
153 188 287 319 484 470 58 45 112 87 120 93 18 14 105 73 203 139 39 25 78
51 86 57 50 35 194 121 202 121 5 0 9 4 9 9 0 5 8 12 18 15 9 3 26 12 37 19
42 25 232 135 280 162 28 15 100 55 160 90 102 57 150 83 295 162 112 61 336
186 380 211 25 15 48 26 52 25 3 -2 12 4 18 12 7 8 17 15 22 15 5 0 16 7 25
15 8 8 19 13 24 10 5 -4 9 -1 9 4 0 6 5 11 10 11 6 0 27 11 48 24 20 13 100
61 177 106 350 206 754 483 899 615 6 6 25 21 41 33 92 70 312 283 424 409 80
90 201 248 201 262 0 5 6 14 13 18 8 4 26 28 41 53 45 76 50 84 68 111 24 36
136 261 153 306 7 21 23 63 35 93 26 68 77 243 85 290 3 19 8 42 10 50 38 135
60 494 42 675 -30 293 -138 499 -333 638 -52 36 -174 100 -174 90 0 -3 -7 0
-15 7 -8 7 -15 9 -15 5 0 -4 -7 -1 -17 6 -9 8 -19 13 -22 12 -3 -1 -22 2 -41
7 -19 4 -57 12 -85 15 -27 4 -61 9 -75 12 -22 4 -4159 11 -4163 7z"/>
<path d="M3637 2334 c-20 -13 -45 -28 -55 -32 -27 -11 -172 -97 -331 -197 -82
-51 -209 -137 -245 -166 -228 -183 -310 -278 -386 -449 -3 -8 -7 -35 -9 -60
l-2 -46 1063 1 1063 0 -1 30 c-2 68 -44 165 -104 240 -34 43 -135 149 -168
177 -85 70 -315 238 -327 238 -2 0 -30 17 -62 39 -32 21 -128 80 -213 131 -85
51 -162 99 -171 106 -13 11 -21 10 -52 -12z"/>
</g>
</svg>
