<?xml version="1.0" standalone="no"?>
<!DOCTYPE svg PUBLIC "-//W3C//DTD SVG 20010904//EN"
 "http://www.w3.org/TR/2001/REC-SVG-20010904/DTD/svg10.dtd">
<svg version="1.0" xmlns="http://www.w3.org/2000/svg"
 width="700.000000pt" height="700.000000pt" viewBox="0 0 700.000000 700.000000"
 preserveAspectRatio="xMidYMid meet">
<metadata>
Created by potrace 1.14, written by Peter Selinger 2001-2017
</metadata>
<g transform="translate(0.000000,700.000000) scale(0.100000,-0.100000)"
fill="#000000" stroke="none">
<path d="M3302 5208 c-9 -9 -12 -116 -12 -420 l0 -408 -479 0 c-395 0 -481 -2
-490 -14 -8 -9 -11 -69 -9 -192 l3 -179 487 -3 488 -2 2 -1083 3 -1082 179 -3
c123 -2 183 1 192 9 12 10 14 184 14 1085 l0 1074 478 0 c358 0 481 3 490 12
8 8 12 63 12 179 0 139 -3 170 -16 183 -14 14 -72 16 -490 16 l-474 0 0 404
c0 354 -2 407 -16 420 -13 13 -44 16 -183 16 -116 0 -171 -4 -179 -12z"/>
</g>
</svg>
